<svg id="_x33_0" enable-background="new 0 0 64 64" height="512" viewBox="0 0 64 64" width="512" xmlns="http://www.w3.org/2000/svg"><g><g><g><path d="m8 21v4.35c-.62.71-1 1.64-1 2.65h-5v-20l6-3v4 4 4z" fill="#cf9e76"/></g><g><path d="m8 5v20.35c.74-.83 1.81-1.35 3-1.35 1.46 0 2.73.79 3.42 1.96.7-.59 1.59-.96 2.58-.96 2.21 0 4 1.79 4 4 0 .32-.05.63-.12.93.43.3.8.66 1.11 1.08l.01-.01v-23z" fill="#dfb28b"/></g><g><path d="m62 8v20h-6v-3-4-4-4-4-4z" fill="#cf9e76"/></g><g><path d="m42 8v23c0-1.66 1.34-3 3-3h11v-23z" fill="#dfb28b"/></g><g><path d="m42 8v4h-20l5-4h1 4 4z" fill="#ccd1d9"/></g><g><path d="m42 28v3h-9-11v-7-4-4-4h20v4 4 4z" fill="#e6e9ed"/></g><g><path d="m8 62h-6v-5c0-4.63 3.49-8.44 7.99-8.94.33-.04.67-.06 1.01-.06h6c.34 0 .68.02 1.01.06 2.21.24 4.17 1.28 5.59 2.82-2.15 1.19-3.6 3.48-3.6 6.12v5z" fill="#4fc1e9"/></g><g><path d="m56 62h-12v-5c0-2.64-1.45-4.93-3.6-6.12 1.42-1.54 3.38-2.58 5.59-2.82.33-.04.67-.06 1.01-.06h6c.34 0 .68.02 1.01.06 4.5.5 7.99 4.31 7.99 8.94v5z" fill="#4fc1e9"/></g><g><path d="m17 43 1.01 5.06c-.33-.04-.67-.06-1.01-.06h-6c-.34 0-.68.02-1.01.06l1.01-5.06c.83.62 1.87 1 3 1 1.12 0 2.16-.37 2.99-1.01z" fill="#3bafda"/></g><g><path d="m53 44 1.01 4.06c-.33-.04-.67-.06-1.01-.06h-6c-.34 0-.68.02-1.01.06l1.01-4.06z" fill="#3bafda"/></g><g><path d="m38 62h-12-6v-5c0-2.64 1.45-4.93 3.6-6.12 1.01-.56 2.16-.88 3.4-.88h1 8 1c1.24 0 2.39.32 3.4.88 2.15 1.19 3.6 3.48 3.6 6.12v5z" fill="#fcd770"/></g><g><path d="m34.91 45.62 1.09 4.38h-8l1.09-4.38c.29.12.6.22.91.28.32.07.66.1 1 .1h2c.34 0 .68-.03 1-.1.31-.06.62-.16.91-.28z" fill="#ffc729"/></g><g><path d="m21.99 31.01c.64.83 1.01 1.86 1.01 2.99 0 1.36-.55 2.59-1.42 3.49.26.44.42.96.42 1.51 0 1.66-1.34 3-3 3-.31 0-.61-.06-.9-.15-.31.44-.68.83-1.11 1.14-.83.64-1.87 1.01-2.99 1.01-1.13 0-2.17-.38-3-1-.17-.13-.34-.27-.49-.42-.44.26-.96.42-1.51.42-1.66 0-3-1.34-3-3 0-.62.19-1.2.52-1.68-1.5-.87-2.52-2.47-2.52-4.32 0-2.14 1.35-3.95 3.24-4.67-.14-.42-.24-.86-.24-1.33 0-1.01.38-1.94 1-2.65.74-.83 1.81-1.35 3-1.35 1.46 0 2.73.79 3.42 1.96.7-.59 1.59-.96 2.58-.96 2.21 0 4 1.79 4 4 0 .32-.05.63-.12.93.43.3.8.66 1.11 1.08z" fill="#656d78"/></g><g><path d="m43 37.53v-4.29l.01-.01c-.05-.03-.09-.07-.13-.11-.54-.54-.88-1.29-.88-2.12 0-1.66 1.34-3 3-3h7 1.15c1.07 0 2.05.34 2.85.93.21.14.4.31.58.49.88.88 1.42 2.09 1.42 3.43 0 .76-.18 1.5-.51 2.17l-.49.98v1.53c0 1.37-.39 2.68-1.08 3.8-.7 1.12-1.7 2.05-2.92 2.67h-6c-2.45-1.23-4-3.73-4-6.47z" fill="#656d78"/></g><g><path d="m34.91 45.62c-.29.12-.6.22-.91.28-.32.07-.66.1-1 .1h-2c-.34 0-.68-.03-1-.1-.31-.06-.62-.16-.91-.28-1.81-.75-3.09-2.54-3.09-4.62v-4c0-2.76 2.24-5 5-5h2c2.76 0 5 2.24 5 5v4c0 2.08-1.28 3.87-3.09 4.62z" fill="#b27946"/></g></g><g><path d="m23.293 56.707 1.707 1.707v3.586h2v-4.414l-2.293-2.293z"/><path d="m37 57.586v4.414h2v-3.586l1.707-1.707-1.414-1.414z"/><path d="m5.293 54.707 1.707 1.707v5.586h2v-6.414l-2.293-2.293z"/><path d="m55 55.586v6.414h2v-5.586l1.707-1.707-1.414-1.414z"/><path d="m25 15h2v2h-2z"/><path d="m29 15h2v2h-2z"/><path d="m33 15h2v2h-2z"/><path d="m37 15h2v2h-2z"/><path d="m25 19h2v2h-2z"/><path d="m29 19h2v2h-2z"/><path d="m33 19h2v2h-2z"/><path d="m37 19h2v2h-2z"/><path d="m25 23h2v2h-2z"/><path d="m29 23h2v2h-2z"/><path d="m33 23h2v2h-2z"/><path d="m37 23h2v2h-2z"/><path d="m25 27h2v2h-2z"/><path d="m29 27h2v2h-2z"/><path d="m33 27h2v2h-2z"/><path d="m37 27h2v2h-2z"/><path d="m63 28v-20.618l-6.867-3.433-5.133 1.1v-4.049h-2v4.477l-2 .429v-2.906h-2v3.334l-3.106.666h-4.894v-4h-2v4h-2v-6h-2v6h-2v-4h-2v4h-.351l-3.649 2.92v-2.729l-4-.857v-3.334h-2v2.906l-2-.429v-4.477h-2v4.049l-5.133-1.1-6.867 3.433v20.618h2v-19.382l4-2v18.413c-.62.833-1 1.853-1 2.969 0 .261.022.521.067.783-1.865 1.05-3.067 3.048-3.067 5.217 0 1.808.838 3.515 2.236 4.646-.156.431-.236.888-.236 1.354 0 2.206 1.794 4 4 4 .268 0 .535-.037.799-.093l-.655 3.273c-4.629.873-8.144 4.94-8.144 9.82v5h2v-5c0-4.411 3.589-8 8-8h6c1.824 0 3.587.639 4.997 1.767-1.825 1.468-2.997 3.715-2.997 6.233v5h2v-5c0-3.309 2.691-6 6-6h10c3.309 0 6 2.691 6 6v5h2v-5c0-2.518-1.172-4.765-2.997-6.233 1.41-1.128 3.173-1.767 4.997-1.767h6c4.411 0 8 3.589 8 8v5h2v-5c0-4.89-3.531-8.964-8.175-9.825l-.674-2.695c2.386-1.5 3.849-4.087 3.849-6.952v-1.292l.381-.763c.405-.808.619-1.714.619-2.619 0-1.752-.777-3.322-2-4.395v-21.841l4 2v19.382zm-8-3.809-12 2.571v-1.954l12-2.571zm0-4-12 2.571v-1.954l12-2.571zm0-4-12 2.571v-1.954l12-2.571zm0-4-12 2.571v-1.954l12-2.571zm0-4-12 2.571v-1.975l12-2.552zm-27.649.809h13.649v2h-16.149zm-6.351 9.763-12-2.572v-1.954l12 2.571zm0 2.046v1.954l-12-2.572v-1.954zm0-6.046-12-2.572v-1.954l12 2.571zm-12 7.474 8.429 1.806c-.144-.012-.282-.043-.429-.043-.817 0-1.624.209-2.348.602-.934-1.018-2.24-1.602-3.652-1.602-.712 0-1.386.154-2 .424zm12 2.572v1.222c-.583-.783-1.384-1.383-2.318-1.719zm0-14.046-12-2.572v-1.954l12 2.572zm-14 29.237c0-.402.119-.79.345-1.123l.605-.89-.933-.537c-1.263-.728-2.017-2.018-2.017-3.45 0-1.672 1.02-3.137 2.597-3.73l.919-.346-.329-.925c-.125-.355-.187-.682-.187-.999 0-1.654 1.346-3 3-3 1.056 0 2.016.551 2.566 1.475l.605 1.015.901-.764c.389-.332 1.041-.726 1.928-.726 1.654 0 3 1.346 3 3 0 .209-.03.436-.091.694l-.156.657.551.39c1.062.753 1.696 1.971 1.696 3.259 0 1.044-.405 2.034-1.14 2.789l-.533.547.388.659c.189.32.285.659.285 1.005 0 1.103-.897 2-2 2-.179 0-.368-.034-.597-.105l-.701-.221-.42.604c-.751 1.078-1.977 1.722-3.282 1.722-1.044 0-2.034-.405-2.789-1.14l-.547-.533-.659.388c-.32.189-.659.285-1.005.285-1.103 0-2-.897-2-2zm7 5c.796 0 1.571-.166 2.288-.464l.492 2.464h-5.56l.495-2.474c.718.299 1.487.474 2.285.474zm21-.556v-3.444h-2v4h-2v-4h-2v3.444c-1.19-.694-2-1.97-2-3.444v-4c0-2.206 1.794-4 4-4h2c2.206 0 4 1.794 4 4v4c0 1.474-.81 2.75-2 3.444zm-4 2.556h2c.407 0 .805-.042 1.189-.119l.53 2.119h-5.438l.53-2.119c.384.077.782.119 1.189.119zm6 2h-.219l-.713-2.853c1.752-1.048 2.932-2.96 2.932-5.147v-4c0-3.309-2.691-6-6-6h-2c-3.309 0-6 2.691-6 6v4c0 2.187 1.18 4.099 2.932 5.147l-.713 2.853h-.219c-1.141 0-2.224.244-3.207.676-1.382-1.28-3.097-2.143-4.936-2.493l-.762-3.81c.139-.131.275-.266.402-.41 2.449.351 4.503-1.592 4.503-3.963 0-.457-.083-.914-.244-1.35.807-1.046 1.244-2.318 1.244-3.65 0-1.182-.361-2.32-1-3.287v-17.713h18v18c0 1.012.378 1.938 1 2.643v3.885c0 2.865 1.463 5.452 3.849 6.952l-.675 2.699c-1.851.346-3.577 1.211-4.967 2.497-.983-.432-2.066-.676-3.207-.676zm15.219-4 .5 2h-5.438l.5-2zm4.374-10.422-.593 1.186v1.764c0 2.301-1.237 4.377-3.245 5.472h-5.51c-2.008-1.095-3.245-3.171-3.245-5.472v-2.654c.32.082.655.126 1 .126h2v-2h-2c-1.103 0-2-.897-2-2s.897-2 2-2h8.146c2.125 0 3.854 1.729 3.854 3.854 0 .596-.141 1.191-.407 1.724zm-3.447-7.578h-1.706l3.56-.763v1.069c-.583-.196-1.206-.306-1.854-.306z"/></g></g></svg>